<svg width="36" height="36" viewBox="0 0 36 36" fill="none" xmlns="http://www.w3.org/2000/svg">
<g clip-path="url(#clip0_245_2411)">
<path d="M17.9993 -1.52168e-05C15.232 -0.000204143 12.5019 0.637665 10.0212 1.86403C7.54042 3.09039 5.37586 4.87221 3.69565 7.07105C2.01545 9.26989 0.864852 11.8265 0.333269 14.5423C-0.198313 17.2581 -0.0965654 20.0598 0.630606 22.7299C1.35778 25.3999 2.69079 27.8664 4.52606 29.9376C6.36134 32.0087 8.64945 33.6289 11.2126 34.672C13.7757 35.7152 16.5449 36.1534 19.3049 35.9525C22.0649 35.7516 24.7414 34.917 27.1265 33.5136L32.4179 34.9536C32.7691 35.0497 33.1394 35.0512 33.4914 34.9579C33.8433 34.8647 34.1643 34.6799 34.4217 34.4225C34.6792 34.165 34.864 33.844 34.9572 33.4921C35.0505 33.1401 35.049 32.7698 34.9529 32.4186L33.5129 27.1272C35.1213 24.3931 35.9787 21.2826 35.9982 18.1106C36.0177 14.9386 35.1986 11.8177 33.6239 9.06413C32.0491 6.31053 29.7747 4.02197 27.0309 2.43024C24.2871 0.838498 21.1714 0.000112205 17.9993 -1.52168e-05ZM32.2877 27.1956L33.7955 32.7354C33.8355 32.8823 33.836 33.0372 33.7968 33.1844C33.7576 33.3316 33.6802 33.4658 33.5724 33.5734C33.4647 33.681 33.3303 33.7581 33.1831 33.7971C33.0359 33.836 32.8809 33.8353 32.7341 33.795L27.1943 32.2872C27.1155 32.2656 27.0332 32.2604 26.9524 32.2719C26.8716 32.2835 26.794 32.3116 26.7245 32.3544C23.2137 34.4884 19.0426 35.2619 15.0001 34.5287C10.9576 33.7955 7.32391 31.6064 4.78622 28.3753C2.24852 25.1443 0.98277 21.0954 1.22834 16.9942C1.47391 12.8931 3.21379 9.02414 6.11891 6.11902C9.02404 3.21389 12.893 1.47402 16.9941 1.22845C21.0953 0.982878 25.1442 2.24863 28.3752 4.78632C31.6063 7.32402 33.7954 10.9577 34.5286 15.0002C35.2618 19.0428 34.4883 23.2138 32.3543 26.7246C32.3117 26.7944 32.2838 26.8722 32.2723 26.9532C32.2609 27.0342 32.2661 27.1167 32.2877 27.1956Z" fill="#158FD5"/>
<path d="M12.6004 21.6C12.7595 21.6 12.9121 21.5368 13.0247 21.4243C13.1372 21.3117 13.2004 21.1591 13.2004 21C13.2004 20.8409 13.1372 20.6883 13.0247 20.5757C12.9121 20.4632 12.7595 20.4 12.6004 20.4H9.92619C10.2325 20.1556 10.5609 19.9403 10.9072 19.7568C11.929 19.1664 13.2004 18.4326 13.2004 16.8C13.2004 16.1635 12.9475 15.553 12.4974 15.1029C12.0474 14.6529 11.4369 14.4 10.8004 14.4C10.1639 14.4 9.55342 14.6529 9.10333 15.1029C8.65325 15.553 8.40039 16.1635 8.40039 16.8C8.40039 16.9591 8.4636 17.1117 8.57613 17.2243C8.68865 17.3368 8.84126 17.4 9.00039 17.4C9.15952 17.4 9.31213 17.3368 9.42465 17.2243C9.53718 17.1117 9.60039 16.9591 9.60039 16.8C9.60039 16.4817 9.72682 16.1765 9.95186 15.9515C10.1769 15.7264 10.4821 15.6 10.8004 15.6C11.1187 15.6 11.4239 15.7264 11.6489 15.9515C11.874 16.1765 12.0004 16.4817 12.0004 16.8C12.0004 17.6766 11.3608 18.1092 10.3072 18.72C9.41319 19.2336 8.40039 19.818 8.40039 21C8.40039 21.1591 8.4636 21.3117 8.57613 21.4243C8.68865 21.5368 8.84126 21.6 9.00039 21.6H12.6004Z" fill="#158FD5"/>
<path d="M23.9993 15C23.9993 15.1591 24.0626 15.3117 24.1751 15.4243C24.2876 15.5368 24.4402 15.6 24.5993 15.6H26.6285L24.0593 20.7318C23.9882 20.8742 23.9766 21.0391 24.027 21.1901C24.0774 21.3411 24.1857 21.4659 24.3281 21.537C24.4706 21.6081 24.6354 21.6198 24.7864 21.5694C24.9374 21.519 25.0622 21.4106 25.1333 21.2682L28.1333 15.2682C28.179 15.1769 28.2005 15.0755 28.196 14.9736C28.1916 14.8717 28.1612 14.7726 28.1077 14.6857C28.0542 14.5987 27.9795 14.5269 27.8906 14.4769C27.8016 14.4269 27.7014 14.4005 27.5993 14.4H24.5993C24.4402 14.4 24.2876 14.4632 24.1751 14.5757C24.0626 14.6883 23.9993 14.8409 23.9993 15Z" fill="#158FD5"/>
<path d="M17.3992 21.6C17.5584 21.6 17.711 21.5368 17.8235 21.4243C17.936 21.3117 17.9992 21.1591 17.9992 21V19.8H18.5992C18.7584 19.8 18.911 19.7368 19.0235 19.6243C19.136 19.5117 19.1992 19.3591 19.1992 19.2C19.1992 19.0409 19.136 18.8883 19.0235 18.7757C18.911 18.6632 18.7584 18.6 18.5992 18.6H17.9992V18C17.9992 17.8409 17.936 17.6883 17.8235 17.5757C17.711 17.4632 17.5584 17.4 17.3992 17.4C17.2401 17.4 17.0875 17.4632 16.975 17.5757C16.8624 17.6883 16.7992 17.8409 16.7992 18V18.6H15.4336L17.32 15.3C17.3613 15.2315 17.3885 15.1554 17.4 15.0763C17.4115 14.9971 17.4071 14.9165 17.387 14.8391C17.3668 14.7616 17.3314 14.689 17.2828 14.6255C17.2342 14.562 17.1734 14.5088 17.104 14.4691C17.0345 14.4294 16.9578 14.404 16.8784 14.3944C16.799 14.3848 16.7185 14.3912 16.6416 14.4131C16.5646 14.4351 16.4929 14.4722 16.4305 14.5223C16.3682 14.5724 16.3165 14.6344 16.2784 14.7048L13.8784 18.9048C13.8269 18.996 13.8001 19.099 13.8008 19.2038C13.8014 19.3085 13.8295 19.4112 13.8822 19.5017C13.9348 19.5922 14.0103 19.6674 14.101 19.7197C14.1917 19.7721 14.2945 19.7997 14.3992 19.8H16.7992V21C16.7992 21.1591 16.8624 21.3117 16.975 21.4243C17.0875 21.5368 17.2401 21.6 17.3992 21.6Z" fill="#158FD5"/>
<path d="M21.6186 14.2548L19.8186 21.4548C19.7801 21.6092 19.8045 21.7725 19.8864 21.9088C19.9683 22.0452 20.1011 22.1435 20.2554 22.182C20.3029 22.1938 20.3516 22.1998 20.4006 22.2C20.5343 22.1998 20.6642 22.155 20.7695 22.0726C20.8748 21.9902 20.9496 21.875 20.982 21.7452L22.782 14.5452C22.8031 14.4681 22.8087 14.3875 22.7982 14.3082C22.7878 14.229 22.7616 14.1526 22.7212 14.0836C22.6809 14.0145 22.6271 13.9543 22.5631 13.9063C22.4991 13.8584 22.4262 13.8237 22.3486 13.8044C22.271 13.785 22.1903 13.7814 22.1113 13.7936C22.0323 13.8059 21.9565 13.8338 21.8885 13.8758C21.8204 13.9178 21.7614 13.9729 21.715 14.038C21.6685 14.1031 21.6361 14.1768 21.6186 14.2548Z" fill="#158FD5"/>
<path d="M28.3742 10.8324C28.2395 10.917 28.144 11.0516 28.1085 11.2067C28.0731 11.3617 28.1007 11.5245 28.1852 11.6592C29.6712 14.0393 30.2758 16.865 29.8937 19.6448C29.5116 22.4246 28.167 24.9824 26.0939 26.8732C24.0208 28.764 21.3503 29.8682 18.5472 29.9935C15.7441 30.1189 12.9858 29.2575 10.7522 27.5592L12.0266 27.48C12.1857 27.4701 12.3343 27.3973 12.4398 27.2777C12.5453 27.1582 12.599 27.0016 12.5891 26.8425C12.5791 26.6834 12.5064 26.5347 12.3868 26.4292C12.2673 26.3237 12.1107 26.2701 11.9516 26.28L9.19696 26.4516C9.03815 26.4616 8.88982 26.5343 8.78462 26.6537C8.67941 26.7731 8.62594 26.9294 8.63596 27.0882L8.80756 29.8422C8.81704 29.9948 8.88441 30.138 8.99592 30.2426C9.10743 30.3472 9.25467 30.4053 9.40756 30.405H9.44536C9.52405 30.4001 9.601 30.3798 9.67182 30.3451C9.74263 30.3105 9.80593 30.2622 9.85809 30.2031C9.91024 30.144 9.95024 30.0751 9.97578 30.0006C10.0013 29.926 10.0119 29.8471 10.007 29.7684L9.92356 28.4274C12.3704 30.3254 15.4069 31.3022 18.5014 31.1866C21.5959 31.071 24.5512 29.8705 26.8496 27.7952C29.148 25.7199 30.643 22.9022 31.0729 19.8355C31.5028 16.7688 30.8401 13.6487 29.201 11.0214C29.1163 10.8868 28.9817 10.7912 28.8267 10.7558C28.6716 10.7203 28.5089 10.7479 28.3742 10.8324Z" fill="#158FD5"/>
<path d="M5.99926 18C5.9979 15.7658 6.62067 13.5756 7.79739 11.6763C8.9741 9.77709 10.658 8.24432 12.6591 7.25081C14.6603 6.2573 16.8992 5.84256 19.1235 6.05334C21.3478 6.26413 23.4689 7.09206 25.2479 8.4438L23.9735 8.523C23.8947 8.52544 23.8171 8.54338 23.7453 8.57579C23.6734 8.6082 23.6086 8.65445 23.5547 8.71189C23.5007 8.76933 23.4585 8.83684 23.4306 8.91057C23.4027 8.9843 23.3896 9.06281 23.3921 9.1416C23.3945 9.22039 23.4125 9.29793 23.4449 9.36979C23.4773 9.44166 23.5235 9.50643 23.581 9.56042C23.6384 9.6144 23.7059 9.65655 23.7796 9.68445C23.8534 9.71234 23.9319 9.72544 24.0107 9.723H24.0485L26.8031 9.5514C26.9619 9.54137 27.1102 9.46867 27.2154 9.34929C27.3206 9.2299 27.3741 9.07361 27.3641 8.9148L27.1925 6.1608C27.1888 6.08176 27.1692 6.00426 27.135 5.93291C27.1008 5.86156 27.0526 5.7978 26.9933 5.74543C26.934 5.69305 26.8648 5.65312 26.7897 5.628C26.7147 5.60288 26.6354 5.59309 26.5565 5.5992C26.4778 5.60409 26.4008 5.62444 26.33 5.65908C26.2592 5.69373 26.1959 5.74199 26.1437 5.80111C26.0916 5.86024 26.0516 5.92906 26.026 6.00364C26.0005 6.07823 25.9899 6.15712 25.9949 6.2358L26.0783 7.5768C23.6317 5.67958 20.5959 4.70329 17.5021 4.81882C14.4083 4.93436 11.4537 6.13436 9.15548 8.20876C6.85727 10.2832 5.36189 13.0998 4.93109 16.1656C4.5003 19.2315 5.16154 22.3512 6.79907 24.9786C6.85307 25.0648 6.9281 25.1358 7.0171 25.1851C7.1061 25.2343 7.20616 25.2601 7.30786 25.26C7.42051 25.2602 7.53085 25.2281 7.62587 25.1676C7.76051 25.083 7.85605 24.9484 7.89149 24.7933C7.92693 24.6383 7.89937 24.4755 7.81487 24.3408C6.62536 22.44 5.99607 20.2423 5.99926 18Z" fill="#158FD5"/>
</g>
<defs>
<clipPath id="clip0_245_2411">
<rect width="36" height="36" fill="white"/>
</clipPath>
</defs>
</svg>
