<svg width="40" height="40" viewBox="0 0 40 40" fill="none" xmlns="http://www.w3.org/2000/svg">
<path d="M15.8997 22.75C16.9036 22.75 17.7175 23.6221 17.7175 24.6978V33.0532C17.7175 34.1289 16.9036 35.0008 15.8997 35.0008C14.8959 35.0008 14.082 34.1289 14.082 33.0532V24.6978C14.082 23.6222 14.8959 22.7501 15.8997 22.7501V22.75Z" fill="#2293D3"/>
<path d="M11.7476 12.7031C11.7416 12.777 11.7363 12.8517 11.7363 12.9272V25.5864C11.7363 26.9478 12.742 28.0446 13.9905 28.0446H26.005C27.2536 28.0446 28.2593 26.9477 28.2593 25.5864V12.9272C28.2593 12.8517 28.2568 12.7767 28.2509 12.7031H11.7476Z" fill="#2293D3"/>
<path d="M24.1005 22.7489C25.1044 22.7489 25.9183 23.6209 25.9183 24.6966V33.0521C25.9183 34.1278 25.1044 34.9997 24.1005 34.9997C23.0967 34.9997 22.2828 34.1278 22.2828 33.0521V24.6966C22.2828 23.6211 23.0967 22.749 24.1005 22.749V22.7489ZM8.81779 13.8299C9.82159 13.8299 10.6355 14.702 10.6355 15.7777V24.1331C10.6355 25.2088 9.82159 26.0809 8.81779 26.0809C7.81386 26.0809 7 25.2088 7 24.1333V15.7778C6.99987 14.7021 7.81374 13.8299 8.81779 13.8299ZM31.1823 13.8299C32.1861 13.8299 33 14.702 33 15.7777V24.1331C33 25.2088 32.1861 26.0809 31.1823 26.0809C30.1784 26.0809 29.3645 25.2088 29.3645 24.1333V15.7778C29.3645 14.7021 30.1784 13.8299 31.1823 13.8299ZM11.8028 11.8718C11.8533 7.98333 15.0207 4.79516 19.0864 4.375H20.9133C24.9793 4.7953 28.1464 7.9836 28.197 11.8718H11.8028Z" fill="#2293D3"/>
<path d="M12.4355 4L14.353 7.55882M27.5657 4L25.6481 7.55882" stroke="#2293D3" stroke-width="0.525958" stroke-linecap="round" stroke-linejoin="round"/>
<path d="M17.5566 8.38539C17.5582 8.92892 17.1383 9.37084 16.6188 9.37234C16.0996 9.37371 15.6773 8.93439 15.6758 8.39086V8.38539C15.6744 7.84172 16.0942 7.39995 16.6136 7.39844C17.1329 7.39694 17.5551 7.83611 17.5566 8.37992V8.38539ZM24.5766 8.38539C24.5781 8.92892 24.1583 9.37084 23.6388 9.37234C23.1195 9.37371 22.6973 8.93439 22.6957 8.39086V8.38539C22.6943 7.84172 23.1142 7.39995 23.6336 7.39844C24.1528 7.39694 24.5751 7.83611 24.5766 8.37992V8.38539Z" fill="#141315"/>
</svg>
