<svg width="36" height="36" viewBox="0 0 36 36" fill="none" xmlns="http://www.w3.org/2000/svg">
<g clip-path="url(#clip0_245_2402)">
<path d="M13.4896 21.1952C13.9887 23.2225 15.8212 24.7308 18.0003 24.7308C20.1794 24.7308 22.0119 23.2223 22.5109 21.1949L23.7159 22.4869C23.7878 22.564 23.8275 22.6646 23.8275 22.7701V23.7667C23.8275 24.0579 24.0636 24.294 24.3548 24.294C24.646 24.294 24.882 24.0578 24.882 23.7667V22.7701C24.882 22.3966 24.7418 22.0405 24.487 21.7675L22.6458 19.7935V18.5176H23.4609C23.6016 18.5176 23.7338 18.5724 23.8333 18.6719L24.8524 19.691C25.0584 19.897 25.3922 19.8969 25.5981 19.691C25.804 19.4851 25.804 19.1512 25.5981 18.9454L24.579 17.9262C24.2803 17.6276 23.8832 17.4631 23.4609 17.4631H22.6457V16.4744C22.6457 16.4032 22.642 16.3328 22.6358 16.2632L23.687 15.6594C24.1421 15.3979 24.4247 14.9096 24.4247 14.3847V12.1868C24.4247 11.8956 24.1886 11.6596 23.8974 11.6596C23.6063 11.6596 23.3702 11.8957 23.3702 12.1868V14.3847C23.3702 14.533 23.2903 14.6711 23.1617 14.745L22.2957 15.2424C22.0021 14.7677 21.5445 14.4047 21.0023 14.2334V13.9252C21.0023 12.2698 19.6555 10.923 18.0001 10.923C16.3448 10.923 14.998 12.2698 14.998 13.9252V14.2334C14.4559 14.4046 13.9982 14.7676 13.7047 15.2423L12.839 14.745C12.7104 14.6711 12.6305 14.5331 12.6305 14.3848V12.1869C12.6305 11.8957 12.3944 11.6596 12.1032 11.6596C11.812 11.6596 11.576 11.8958 11.576 12.1869V14.3848C11.576 14.9096 11.8586 15.398 12.3137 15.6594L13.3646 16.2631C13.3583 16.3328 13.3546 16.4032 13.3546 16.4745V17.4632H12.5397C12.1174 17.4632 11.7203 17.6276 11.4216 17.9263L10.4025 18.9454C10.1966 19.1513 10.1966 19.4852 10.4025 19.6911C10.5054 19.794 10.6404 19.8456 10.7754 19.8456C10.9104 19.8456 11.0452 19.7941 11.1482 19.6911L12.1674 18.672C12.2668 18.5726 12.3991 18.5177 12.5397 18.5177H13.3546V19.7939L11.5137 21.7675C11.2589 22.0406 11.1186 22.3966 11.1186 22.7702V23.7668C11.1186 24.058 11.3547 24.294 11.6459 24.294C11.9371 24.294 12.1732 24.0579 12.1732 23.7668V22.7702C12.1732 22.6647 12.2128 22.5641 12.2848 22.4869L13.4896 21.1952ZM21.5913 16.4744V20.0852C21.5913 21.8862 20.2585 23.3814 18.5275 23.6372V15.1793H20.2962C21.0103 15.1793 21.5913 15.7603 21.5913 16.4744ZM18.0003 11.9776C19.0741 11.9776 19.9478 12.8512 19.9478 13.9252V14.1249H16.0527V13.9252C16.0527 12.8512 16.9264 11.9776 18.0003 11.9776ZM14.4092 16.4744C14.4092 15.7603 14.9902 15.1793 15.7043 15.1793H17.4729V23.6372C15.742 23.3813 14.4091 21.8862 14.4091 20.0851V16.4744H14.4092Z" fill="#158FD5"/>
<path d="M30.4012 5.01864C29.8395 4.91205 24.8608 5.39418 20.2685 1.4358L19.2042 0.51843C18.4502 -0.175765 17.4829 -0.171827 16.7872 0.526376L15.732 1.43587C14.7112 2.31576 13.574 3.04982 12.3519 3.61759C12.0878 3.74029 11.9732 4.05388 12.0959 4.31798C12.2186 4.58207 12.5323 4.69668 12.7963 4.57399C14.1066 3.96515 15.3261 3.17807 16.4206 2.23462C17.2083 1.55498 17.5003 1.30551 17.5255 1.2797C17.8979 0.897274 18.2578 1.07868 18.4943 1.2982C18.5067 1.30987 18.4479 1.25854 19.5802 2.23462C24.4889 6.46588 29.7763 5.9616 30.3541 6.0722C31.0793 6.10469 31.6474 6.6989 31.6474 7.42488V15.6928C31.6474 23.7476 26.8996 31.0807 19.5507 34.3771C18.7216 34.7156 18.4654 34.9458 18.0004 34.9458C17.5345 34.9458 17.2767 34.7146 16.4502 34.3772C9.1013 31.0807 4.3533 23.7476 4.3533 15.6927V7.42481C4.3533 6.69883 4.92143 6.10469 5.64663 6.07213C6.45234 6.00618 10.5142 5.20546 12.7963 4.57399C13.077 4.49636 13.1279 4.33065 13.0503 4.05003C12.9727 3.76934 12.6326 3.54004 12.3519 3.61759C10.2082 4.21075 6.41578 4.95255 5.59945 5.01864C4.30936 5.07651 3.29883 6.13345 3.29883 7.42481V15.6927C3.29883 24.1655 8.29495 31.8787 16.0271 35.3431C16.0326 35.3456 16.0382 35.3479 16.0438 35.3503C16.8554 35.6807 17.2515 36.0002 18.0003 36.0002C18.7513 36.0002 19.1241 35.6893 19.9568 35.3503C19.9625 35.3479 19.9681 35.3456 19.9736 35.3431C27.7057 31.8787 32.7018 24.1655 32.7018 15.6927V7.42481C32.7019 6.13345 31.6914 5.07651 30.4012 5.01864Z" fill="#158FD5"/>
<path d="M5.9707 8.44228V15.6925C5.9707 23.0947 10.3313 29.8435 17.0797 32.8858C17.1522 32.9182 17.2815 32.9652 17.6601 33.1422C17.7677 33.1925 17.8833 33.2177 17.9989 33.2177C18.1143 33.2177 18.2298 33.1926 18.3373 33.1423C18.3373 33.1423 18.3374 33.1423 18.3374 33.1422C18.7087 32.9688 18.8761 32.9048 18.9185 32.8858C25.6669 29.8434 30.0274 23.0946 30.0274 15.6925V8.44256C30.0274 8.00775 29.6872 7.65605 29.253 7.64191C25.3125 7.51359 21.5015 6.02859 18.522 3.46043C18.2239 3.20344 17.7741 3.20344 17.476 3.46043C14.5017 6.02409 10.6904 7.50902 6.74414 7.6417C6.31052 7.65626 5.9707 8.00796 5.9707 8.44228ZM7.02532 8.6857C10.8236 8.5069 14.492 7.14741 17.4719 4.82618V8.98376C17.4719 9.27499 17.708 9.51103 17.9991 9.51103C18.2903 9.51103 18.5264 9.27492 18.5264 8.98376V4.82625C21.5107 7.15162 25.179 8.51133 28.9729 8.68619V15.6925C28.9729 22.6654 24.8736 29.0242 18.5264 31.9054V26.67C18.5264 26.3788 18.2903 26.1427 17.9991 26.1427C17.708 26.1427 17.4719 26.3789 17.4719 26.67V31.9054C11.1246 29.0242 7.02532 22.6654 7.02532 15.6925V8.6857Z" fill="#158FD5"/>
</g>
<defs>
<clipPath id="clip0_245_2402">
<rect width="36" height="36" fill="white"/>
</clipPath>
</defs>
</svg>
