<svg width="40" height="40" viewBox="0 0 40 40" fill="none" xmlns="http://www.w3.org/2000/svg">
<path d="M26.1365 5C26.2108 5 26.285 5 26.3634 5C26.5455 7.04514 25.687 8.57327 24.6437 9.67988C23.62 10.7789 22.2182 11.8447 19.9509 11.683C19.7997 9.66715 20.6595 8.25236 21.7014 7.14829C22.6677 6.11935 24.4392 5.20375 26.1365 5Z" fill="#2293D3"/>
<path d="M33 26.2859C33 26.3063 33 26.3241 33 26.3432C32.3628 28.098 31.4539 29.6019 30.3448 30.9976C29.3323 32.2647 28.0916 33.9698 25.8761 33.9698C23.9618 33.9698 22.6902 32.8505 20.7282 32.8199C18.6528 32.7893 17.5115 33.7559 15.6139 33.9991C15.3969 33.9991 15.1798 33.9991 14.9669 33.9991C13.5735 33.8157 12.449 32.8123 11.6298 31.9081C9.21405 29.2364 7.3473 25.7854 7 21.3691C7 20.9362 7 20.5045 7 20.0715C7.14704 16.9108 8.83594 14.341 11.0808 13.0956C12.2655 12.4334 13.8942 11.8693 15.7077 12.1214C16.485 12.231 17.279 12.4729 17.975 12.7123C18.6346 12.9428 19.4594 13.3516 20.2409 13.3299C20.7702 13.3159 21.2968 13.0651 21.8303 12.8881C23.3932 12.3749 24.9252 11.7865 26.9446 12.0629C29.3715 12.3965 31.094 13.3771 32.1584 14.8899C30.1054 16.078 28.4823 17.8685 28.7596 20.926C29.006 23.7034 30.7818 25.3283 33 26.2859Z" fill="#2293D3"/>
</svg>
