<svg width="36" height="36" viewBox="0 0 36 36" fill="none" xmlns="http://www.w3.org/2000/svg">
<path d="M26.5255 27.4737C27.0487 27.4737 27.4729 27.0495 27.4729 26.5263C27.4729 26.0031 27.0487 25.5789 26.5255 25.5789C26.0023 25.5789 25.5781 26.0031 25.5781 26.5263C25.5781 27.0495 26.0023 27.4737 26.5255 27.4737Z" fill="#158FD5"/>
<path d="M30.3146 27.4737C30.8378 27.4737 31.2619 27.0495 31.2619 26.5263C31.2619 26.0031 30.8378 25.5789 30.3146 25.5789C29.7913 25.5789 29.3672 26.0031 29.3672 26.5263C29.3672 27.0495 29.7913 27.4737 30.3146 27.4737Z" fill="#158FD5"/>
<path d="M32.2102 21.7895H22.1823L21.235 22.7369H32.2102V28.4211H3.78917V22.7369H14.7644L13.8171 21.7895H3.78917C3.53791 21.7895 3.29694 21.8893 3.11927 22.067C2.94161 22.2446 2.8418 22.4856 2.8418 22.7369V28.4211C2.8418 28.6723 2.94161 28.9133 3.11927 29.091C3.29694 29.2686 3.53791 29.3684 3.78917 29.3684H32.2102C32.4615 29.3684 32.7024 29.2686 32.8801 29.091C33.0578 28.9133 33.1576 28.6723 33.1576 28.4211V22.7369C33.1576 22.4856 33.0578 22.2446 32.8801 22.067C32.7024 21.8893 32.4615 21.7895 32.2102 21.7895Z" fill="#158FD5"/>
<path d="M25.5778 17.0526H20.841V4.73685H15.1568V17.0526H10.4199L17.9989 24.6316L25.5778 17.0526ZM15.1568 18H16.1041V5.68422H19.8936V18H23.2899L17.9989 23.2911L12.7078 18H15.1568Z" fill="#158FD5"/>
</svg>
