<svg width="24" height="24" viewBox="0 0 24 24" fill="none" xmlns="http://www.w3.org/2000/svg">
<g clip-path="url(#clip0_1721_273)">
<path d="M20.4905 3.51281C15.8111 -1.16658 8.19472 -1.16658 3.51533 3.51281C1.24862 5.78041 0 8.79464 0 12.0004C0 15.2061 1.24862 18.2203 3.51533 20.487C5.85549 22.8272 8.92921 23.9968 12.0029 23.9968C15.0766 23.9968 18.1503 22.8272 20.4904 20.487C25.1698 15.8076 25.1698 8.19309 20.4905 3.51281ZM19.1758 19.1723C15.2207 23.1275 8.78507 23.1275 4.82995 19.1723C2.91472 17.2571 1.85946 14.7096 1.85946 12.0004C1.85946 9.2911 2.91472 6.7436 4.82995 4.82743C8.78507 0.872313 15.2207 0.87325 19.1758 4.82743C23.13 8.78255 23.13 15.2182 19.1758 19.1723Z" fill="#F44336"/>
<path d="M16.0097 14.5702L13.3776 11.9418L16.0097 9.31345C16.3723 8.95087 16.3723 8.36235 16.0106 7.99879C15.6471 7.63433 15.0586 7.63527 14.6951 7.99785L12.0612 10.6281L9.42722 7.99785C9.0637 7.63527 8.47518 7.63433 8.11166 7.99879C7.74908 8.3623 7.74908 8.95083 8.1126 9.31345L10.7447 11.9418L8.1126 14.5702C7.74908 14.9327 7.74908 15.5213 8.11166 15.8848C8.29298 16.067 8.5319 16.1572 8.76994 16.1572C9.00797 16.1572 9.24596 16.0661 9.42727 15.8857L12.0612 13.2555L14.6951 15.8857C14.8764 16.067 15.1144 16.1572 15.3525 16.1572C15.5905 16.1572 15.8294 16.0661 16.0107 15.8848C16.3732 15.5213 16.3732 14.9327 16.0097 14.5702Z" fill="#F44336"/>
</g>
<defs>
<clipPath id="clip0_1721_273">
<rect width="24" height="24" fill="white"/>
</clipPath>
</defs>
</svg>
