<svg width="24" height="24" viewBox="0 0 24 24" fill="none" xmlns="http://www.w3.org/2000/svg">
<path d="M9.64618 10.4456C8.99475 10.4456 8.48047 11.017 8.48047 11.7141C8.48047 12.4113 9.00618 12.9827 9.64618 12.9827C10.2976 12.9827 10.8119 12.4113 10.8119 11.7141C10.8233 11.017 10.2976 10.4456 9.64618 10.4456ZM13.8176 10.4456C13.1662 10.4456 12.6519 11.017 12.6519 11.7141C12.6519 12.4113 13.1776 12.9827 13.8176 12.9827C14.469 12.9827 14.9833 12.4113 14.9833 11.7141C14.9833 11.017 14.469 10.4456 13.8176 10.4456Z" fill="#727173"/>
<path d="M19.372 0.857178H4.0577C2.76627 0.857178 1.71484 1.90861 1.71484 3.21146V18.6629C1.71484 19.9657 2.76627 21.0172 4.0577 21.0172H17.0177L16.412 18.9029L17.8748 20.2629L19.2577 21.5429L21.7148 23.7143V3.21146C21.7148 1.90861 20.6634 0.857178 19.372 0.857178ZM14.9606 15.7829C14.9606 15.7829 14.5491 15.2915 14.2063 14.8572C15.7034 14.4343 16.2748 13.4972 16.2748 13.4972C15.8063 13.8057 15.3606 14.0229 14.9606 14.1715C14.3891 14.4115 13.8406 14.5715 13.3034 14.6629C12.2063 14.8686 11.2006 14.8115 10.3434 14.6515C9.69199 14.5257 9.13199 14.3429 8.66342 14.16C8.40056 14.0572 8.11484 13.9315 7.82913 13.7715C7.79484 13.7486 7.76056 13.7372 7.72627 13.7143C7.70342 13.7029 7.69199 13.6915 7.68056 13.68C7.47484 13.5657 7.36056 13.4857 7.36056 13.4857C7.36056 13.4857 7.90913 14.4 9.36056 14.8343C9.0177 15.2686 8.59484 15.7829 8.59484 15.7829C6.06913 15.7029 5.10913 14.0457 5.10913 14.0457C5.10913 10.3657 6.75484 7.38289 6.75484 7.38289C8.40056 6.14861 9.96627 6.18289 9.96627 6.18289L10.0806 6.32003C8.02342 6.91432 7.07484 7.81718 7.07484 7.81718C7.07484 7.81718 7.32627 7.68004 7.74913 7.48575C8.97199 6.94861 9.94342 6.80003 10.3434 6.76575C10.412 6.75432 10.4691 6.74289 10.5377 6.74289C11.2348 6.65146 12.0234 6.62861 12.8463 6.72003C13.932 6.84575 15.0977 7.16575 16.2863 7.81718C16.2863 7.81718 15.3834 6.96003 13.4406 6.36575L13.6006 6.18289C13.6006 6.18289 15.1663 6.14861 16.812 7.38289C16.812 7.38289 18.4577 10.3657 18.4577 14.0457C18.4577 14.0457 17.4863 15.7029 14.9606 15.7829Z" fill="#727173"/>
</svg>
