<svg width="36" height="36" viewBox="0 0 36 36" fill="none" xmlns="http://www.w3.org/2000/svg">
<path fill-rule="evenodd" clip-rule="evenodd" d="M11.9937 10.8048C11.649 12.1441 10.4332 13.1338 8.98621 13.1338C7.27115 13.1338 5.88086 11.7435 5.88086 10.0284C5.88086 8.31339 7.27115 6.9231 8.98621 6.9231C10.4332 6.9231 11.649 7.91277 11.9937 9.25211H33.0531C33.4818 9.25211 33.8295 9.59964 33.8295 10.0284C33.8295 10.4572 33.4818 10.8048 33.0531 10.8048H11.9937ZM10.5389 10.0284C10.5389 10.8861 9.84365 11.5811 8.98621 11.5811C8.12876 11.5811 7.43353 10.8859 7.43353 10.0284C7.43353 9.171 8.12876 8.47577 8.98621 8.47577C9.84365 8.47577 10.5389 9.17084 10.5389 10.0284Z" fill="#158FD5"/>
<path d="M3.54587 10.7969H5.9727C5.9088 10.5488 5.87488 10.2886 5.87488 10.0205C5.87488 9.75247 5.9088 9.49228 5.9727 9.2442H3.54587C3.11706 9.2442 2.76953 9.59173 2.76953 10.0205C2.76953 10.4493 3.11706 10.7969 3.54587 10.7969Z" fill="#158FD5"/>
<path fill-rule="evenodd" clip-rule="evenodd" d="M21.3041 24.7808C20.9594 23.4415 19.7434 22.4518 18.2966 22.4518C16.8498 22.4518 15.6337 23.4415 15.2891 24.7808H3.54587C3.11706 24.7808 2.76953 25.1285 2.76953 25.5571C2.76953 25.9858 3.11706 26.3335 3.54587 26.3335H15.2889C15.6337 27.6728 16.8496 28.6625 18.2964 28.6625C19.7433 28.6625 20.9594 27.6728 21.304 26.3335H33.047C33.4756 26.3335 33.8233 25.9858 33.8233 25.5571C33.8233 25.1285 33.4756 24.7808 33.047 24.7808H21.3041ZM18.2966 27.1098C19.1542 27.1098 19.8493 26.4147 19.8493 25.5571C19.8493 24.6995 19.1542 24.0045 18.2966 24.0045C17.439 24.0045 16.7439 24.6995 16.7439 25.5571C16.7439 26.4147 17.439 27.1098 18.2966 27.1098Z" fill="#158FD5"/>
<path fill-rule="evenodd" clip-rule="evenodd" d="M30.6203 17.0113C30.2756 15.672 29.0596 14.6823 27.6128 14.6823C26.166 14.6823 24.9499 15.672 24.6053 17.0113H3.54587C3.11706 17.0113 2.76953 17.359 2.76953 17.7877C2.76953 18.2163 3.11706 18.564 3.54587 18.564H24.6053C24.95 19.9033 26.166 20.893 27.6128 20.893C29.0596 20.893 30.2757 19.9033 30.6203 18.564H33.0472C33.4758 18.564 33.8235 18.2163 33.8235 17.7877C33.8235 17.359 33.4758 17.0113 33.0472 17.0113H30.6203ZM27.6128 19.3403C28.4704 19.3403 29.1655 18.6453 29.1655 17.7877C29.1655 16.9301 28.4702 16.235 27.6128 16.235C26.7552 16.235 26.0601 16.9301 26.0601 17.7877C26.0601 18.6453 26.7552 19.3403 27.6128 19.3403Z" fill="#158FD5"/>
</svg>
