<svg width="169" height="22" viewBox="0 0 169 22" fill="none" xmlns="http://www.w3.org/2000/svg">
<path fill-rule="evenodd" clip-rule="evenodd" d="M9.70742 2.18086C6.35414 2.48947 4.22334 3.55315 2.82576 5.61626C1.91613 6.95905 1.39277 9.00854 1.3887 11.2435C1.379 16.5204 3.68333 19.4817 8.45092 20.3191C9.61922 20.5243 12.5691 20.5243 13.7374 20.3191C17.1324 19.7227 19.2305 18.0795 20.2399 15.2261C20.5877 14.2431 20.7725 13.1158 20.8826 11.3055C20.9806 9.69622 21.1436 9.15748 21.7194 8.53973C22.474 7.73018 23.634 7.3746 25.2854 7.44672C27.3385 7.53637 28.4214 8.13247 28.9149 9.44461L29.073 9.86506H31.883H34.693L34.6267 9.1477C34.4903 7.67134 33.9253 6.15614 33.1291 5.13191C32.3057 4.07277 30.834 3.14371 29.229 2.66983C26.9057 1.98391 23.412 1.96522 21.0555 2.6261C18.4836 3.34738 16.7083 4.94483 15.8423 7.31699C15.6465 7.8531 15.5332 8.07083 15.5327 7.91177C15.5311 7.4303 16.0055 5.44856 16.3682 4.42154C16.5692 3.85242 16.7337 3.35341 16.7337 3.31255C16.7337 3.11018 14.7844 2.49855 13.5586 2.31618C12.4534 2.15179 10.6945 2.08998 9.70742 2.18086ZM35.4251 4.43053C35.457 6.92736 35.4742 7.02348 35.9393 7.31148C36.1593 7.44776 36.5185 7.46723 39.2636 7.49141L42.3413 7.51856L42.3651 14.039L42.3888 20.5595L45.1854 20.5826L47.982 20.6057V14.0164V7.42716L51.1699 7.40202L54.3578 7.37696L54.6599 7.09166L54.9621 6.80644L54.9894 4.45079L55.0168 2.09521H45.206H35.3953L35.4251 4.43053ZM63.976 2.18112C61.7063 2.38925 60.1131 2.90983 58.7526 3.88769C56.5747 5.4531 55.5343 8.1728 55.6813 11.9166C55.7946 14.8027 56.5349 16.7211 58.1072 18.2024C58.901 18.9504 59.522 19.3404 60.5262 19.7222C63.5077 20.8555 67.952 20.7695 70.6787 19.5259C72.4968 18.6967 73.7016 17.4205 74.4193 15.5635C75.3906 13.0499 75.3369 9.1738 74.2971 6.7655C73.2351 4.30578 71.0934 2.80707 67.9514 2.32499C66.8399 2.15441 64.9948 2.08762 63.976 2.18112ZM80.6651 2.45036C79.4748 2.63823 78.3364 3.23005 77.7467 3.96757C77.0136 4.8845 76.7375 5.84141 76.7375 7.46426C76.7375 10.1247 77.6609 11.5583 79.8414 12.283L80.5709 12.5256L85.8406 12.5703C90.933 12.6136 91.1243 12.6212 91.5263 12.7969C92.4413 13.1969 92.8733 14.0497 92.8028 15.317C92.7397 16.4542 92.2913 17.1108 91.3647 17.423C91.0867 17.5167 89.6001 17.5407 83.876 17.5438L76.7342 17.5476V18.8571V20.1666L84.0147 20.1652C89.9601 20.1639 91.4093 20.1408 91.9171 20.0392C93.6543 19.6915 94.7172 18.8039 95.2778 17.2325C95.4733 16.6847 95.5333 16.3196 95.5714 15.4496C95.6991 12.5231 94.6091 10.8504 92.1273 10.1645C91.6382 10.0293 90.9544 10.0051 86.3491 9.95995L81.1256 9.90871L80.6782 9.70067C80.1689 9.46391 79.7425 8.96716 79.5901 8.43296C79.534 8.23627 79.5041 7.70094 79.5235 7.2433C79.5538 6.53014 79.5949 6.35326 79.811 6.00502C79.9497 5.78152 80.1909 5.51281 80.3468 5.40796C80.9883 4.9766 80.9962 4.97617 88.5364 4.97617H95.5942V3.66664V2.35712L88.3599 2.36742C84.381 2.37301 80.9184 2.41037 80.6651 2.45036ZM98.4602 11.2512V20.1666H99.8463H101.232L101.256 14.1921L101.28 8.2175L109.254 14.1921C113.64 17.4781 117.249 20.1666 117.274 20.1666C117.299 20.1666 117.32 16.1595 117.32 11.2619V2.35712H115.933H114.547V8.33728C114.547 11.6264 114.526 14.3174 114.501 14.3174C114.469 14.3174 101.241 4.43778 98.5757 2.42312C98.4835 2.35337 98.4602 4.13048 98.4602 11.2512ZM120.279 11.2595V20.1666H121.666H123.053L123.029 11.2837L123.006 2.40077L121.642 2.37659L120.279 2.35249V11.2595ZM126.195 11.2619V20.1666H127.582H128.969V16.369V12.5714H137.012H145.055V11.2619V9.95236H137.012H128.969V7.46426V4.97617H137.012H145.055V3.66664V2.35712H135.625H126.195V11.2619ZM147.552 11.2619V20.1666H148.938H150.325V16.369V12.5714H158.368H166.411V11.2619V9.95236H158.368H150.325V7.46426V4.97617H158.368H166.411V3.66664V2.35712H156.981H147.552V11.2619ZM10.1697 7.4296C9.39762 7.53873 8.52914 7.92216 8.06846 8.35718C7.00675 9.35975 6.71507 11.4945 7.40336 13.2259C7.9626 14.6329 9.7542 15.3855 11.9277 15.1264C14.3068 14.8428 15.3903 13.4305 15.2267 10.8257C15.1115 8.99029 14.3068 7.93752 12.7158 7.541C12.0743 7.38115 10.8816 7.32894 10.1697 7.4296ZM64.0685 7.53952C62.6686 7.82674 61.7862 8.61621 61.4206 9.90871C61.2749 10.4239 61.2589 12.0996 61.3944 12.655C61.7117 13.955 62.6434 14.8053 64.0788 15.1046C64.8606 15.2677 66.6628 15.1787 67.293 14.9459C68.6997 14.4262 69.3824 13.4314 69.4954 11.7367C69.6194 9.87667 68.9899 8.49407 67.7451 7.89256C66.8271 7.44898 65.2487 7.29743 64.0685 7.53952ZM28.8931 13.2639C28.4308 14.5779 27.1999 15.1876 25.008 15.1881C23.974 15.1884 23.3483 15.0805 22.7211 14.7934C22.531 14.7065 22.3628 14.6522 22.3472 14.6728C22.3317 14.6934 22.2246 15.0246 22.1092 15.4087C21.7178 16.7119 20.8402 18.2663 20.0215 19.1061C19.6802 19.4563 19.6639 19.4948 19.8135 19.598C20.0986 19.7949 21.6494 20.2337 22.6043 20.3877C23.7115 20.5661 26.2195 20.5916 27.3193 20.4355C30.6256 19.9662 32.7515 18.6673 33.8961 16.417C34.2852 15.6522 34.652 14.3571 34.7319 13.4662L34.7887 12.8333H31.9166H29.0445L28.8931 13.2639Z" fill="#FFFCFC"/>
</svg>
