<svg width="117" height="16" viewBox="0 0 117 16" fill="none" xmlns="http://www.w3.org/2000/svg">
<path fill-rule="evenodd" clip-rule="evenodd" d="M6.72007 1.58621C4.39857 1.81066 2.9234 2.58424 1.95584 4.08469C1.3261 5.06126 0.963775 6.5518 0.960959 8.1772C0.954238 12.015 2.54955 14.1686 5.85019 14.7776C6.65901 14.9269 8.70126 14.9269 9.51009 14.7776C11.8605 14.3439 13.313 13.1489 14.0118 11.0736C14.2526 10.3587 14.3805 9.53891 14.4567 8.22234C14.5246 7.05193 14.6374 6.66012 15.036 6.21085C15.5585 5.62208 16.3616 5.36348 17.5048 5.41593C18.9262 5.48113 19.6759 5.91466 20.0176 6.86894L20.127 7.17472H22.0724H24.0178L23.9719 6.65301C23.8775 5.57929 23.4863 4.47732 22.9351 3.73243C22.365 2.96215 21.3462 2.28647 20.235 1.94183C18.6266 1.44297 16.2079 1.42939 14.5764 1.91002C12.7959 2.43459 11.5668 3.59637 10.9673 5.32158C10.8317 5.71148 10.7533 5.86983 10.7529 5.75415C10.7518 5.40399 11.0803 3.96272 11.3314 3.2158C11.4705 2.80189 11.5844 2.43897 11.5844 2.40926C11.5844 2.26208 10.2349 1.81726 9.38624 1.68462C8.62113 1.56507 7.40345 1.52012 6.72007 1.58621ZM24.5246 3.22234C24.5467 5.03821 24.5586 5.10812 24.8806 5.31758C25.0329 5.41669 25.2816 5.43085 27.1821 5.44843L29.3128 5.46818L29.3292 10.2103L29.3456 14.9525L31.2818 14.9693L33.2179 14.9861V10.1939V5.4017L35.4249 5.38342L37.6319 5.3652L37.841 5.1577L38.0502 4.95027L38.0692 3.23707L38.0881 1.52393H31.296H24.504L24.5246 3.22234ZM44.2906 1.5864C42.7193 1.73777 41.6163 2.11637 40.6744 2.82755C39.1666 3.96602 38.4464 5.94399 38.5482 8.66678C38.6266 10.7658 39.1391 12.1609 40.2276 13.2382C40.7772 13.7822 41.2071 14.0659 41.9023 14.3435C43.9664 15.1677 47.0433 15.1053 48.931 14.2008C50.1897 13.5977 51.0237 12.6696 51.5206 11.319C52.1931 9.49097 52.1559 6.67199 51.436 4.9205C50.7008 3.13161 49.2181 2.04164 47.0428 1.69104C46.2733 1.56697 44.996 1.5184 44.2906 1.5864ZM55.8446 1.78221C55.0206 1.91885 54.2324 2.34926 53.8242 2.88564C53.3167 3.5525 53.1255 4.24843 53.1255 5.42869C53.1255 7.36355 53.7648 8.40615 55.2744 8.93326L55.7794 9.10964L59.4277 9.14215C62.9532 9.17364 63.0856 9.17916 63.3639 9.30697C63.9974 9.59789 64.2964 10.2181 64.2477 11.1398C64.2039 11.9668 63.8935 12.4444 63.2521 12.6714C63.0596 12.7395 62.0304 12.757 58.0676 12.7592L53.1232 12.762V13.7144V14.6668L58.1636 14.6657C62.2796 14.6648 63.2829 14.648 63.6345 14.5741C64.8371 14.3213 65.573 13.6757 65.9611 12.5329C66.0964 12.1345 66.138 11.8689 66.1643 11.2362C66.2528 9.10786 65.4982 7.89135 63.78 7.3925C63.4414 7.29415 62.968 7.27656 59.7797 7.24374L56.1635 7.20647L55.8537 7.05516C55.5011 6.88297 55.2059 6.5217 55.1004 6.1332C55.0616 5.99015 55.0408 5.60081 55.0543 5.26799C55.0753 4.74932 55.1037 4.62069 55.2533 4.36742C55.3493 4.20488 55.5163 4.00945 55.6243 3.9332C56.0684 3.61948 56.0738 3.61916 61.294 3.61916H66.1801V2.66678V1.7144L61.1718 1.72189C58.4172 1.72596 56.02 1.75313 55.8446 1.78221ZM68.1643 8.18285V14.6668H69.1239H70.0835L70.1 10.3216L70.1164 5.9765L75.637 10.3216C78.6732 12.7115 81.1718 14.6668 81.1894 14.6668C81.2068 14.6668 81.2212 11.7525 81.2212 8.19059V1.7144H80.2611H79.301V6.06361C79.301 8.45567 79.2868 10.4128 79.2695 10.4128C79.2474 10.4128 70.0897 3.22761 68.2443 1.7624C68.1804 1.71167 68.1643 3.00412 68.1643 8.18285ZM83.2693 8.18888V14.6668H84.2297H85.19L85.1738 8.20647L85.1574 1.74615L84.2134 1.72856L83.2693 1.71104V8.18888ZM87.3656 8.19059V14.6668H88.3257H89.2857V11.9049V9.14297H94.8541H100.422V8.19059V7.23821H94.8541H89.2857V5.42869V3.61916H94.8541H100.422V2.66678V1.7144H93.894H87.3656V8.19059ZM102.151 8.19059V14.6668H103.111H104.071V11.9049V9.14297H109.639H115.207V8.19059V7.23821H109.639H104.071V5.42869V3.61916H109.639H115.207V2.66678V1.7144H108.679H102.151V8.19059ZM7.04009 5.40348C6.50559 5.48285 5.90434 5.7617 5.5854 6.07808C4.85038 6.80723 4.64844 8.35974 5.12496 9.61897C5.51212 10.6423 6.75246 11.1896 8.2572 11.0011C9.90429 10.7949 10.6544 9.76774 10.5411 7.87339C10.4614 6.53853 9.90423 5.77288 8.80277 5.4845C8.35865 5.36824 7.53299 5.33028 7.04009 5.40348ZM44.3546 5.48342C43.3855 5.69231 42.7746 6.26647 42.5215 7.20647C42.4206 7.58113 42.4096 8.79986 42.5034 9.2038C42.723 10.1493 43.3681 10.7676 44.3618 10.9853C44.903 11.1039 46.1507 11.0392 46.587 10.8699C47.5609 10.4919 48.0336 9.76843 48.1118 8.53593C48.1976 7.18316 47.7618 6.17764 46.9 5.74018C46.2645 5.41758 45.1717 5.30735 44.3546 5.48342ZM20.0025 9.64659C19.6824 10.6022 18.8303 11.0456 17.3128 11.046C16.5969 11.0462 16.1637 10.9677 15.7295 10.759C15.5979 10.6957 15.4815 10.6563 15.4707 10.6713C15.4599 10.6863 15.3858 10.9271 15.3059 11.2065C15.0349 12.1543 14.4274 13.2847 13.8606 13.8955C13.6243 14.1501 13.613 14.1781 13.7166 14.2533C13.914 14.3964 14.9876 14.7155 15.6487 14.8275C16.4152 14.9573 18.1515 14.9759 18.9129 14.8623C21.2019 14.521 22.6737 13.5764 23.466 11.9398C23.7354 11.3835 23.9894 10.4416 24.0447 9.79377L24.084 9.33345H22.0956H20.1073L20.0025 9.64659Z" fill="#FFFCFC"/>
</svg>
