<svg width="36" height="36" viewBox="0 0 36 36" fill="none" xmlns="http://www.w3.org/2000/svg">
<g clip-path="url(#clip0_245_2343)">
<path d="M21.7363 27.8716L28.824 25.2215L29.3492 26.6266L22.2616 29.2767L21.7363 27.8716Z" fill="#158FD5"/>
<path d="M22.2671 33.0099L21.7422 31.6034L33.885 27.0653C34.2602 26.9299 34.5105 26.5736 34.5105 26.1744C34.5105 25.7753 34.2602 25.4193 33.885 25.2835L31.7846 24.5053C30.6932 24.096 29.5369 23.8864 28.3714 23.8867H28.362C27.1965 23.8864 26.0402 24.096 24.9491 24.5053L22.2671 25.5088L21.7422 24.1023L24.4239 23.0988C25.6834 22.6271 27.0173 22.3857 28.362 22.3862H28.3714C29.7163 22.3854 31.0503 22.6269 32.3095 23.0988L34.4099 23.8867C35.3667 24.2438 36.001 25.1577 36.001 26.1791C36.001 27.2004 35.3667 28.1144 34.4099 28.4718L22.2671 33.0099Z" fill="#158FD5"/>
<path d="M6.63477 25.6715L12.247 23.5733L12.7722 24.9784L7.16 27.0769L6.63477 25.6715Z" fill="#158FD5"/>
<path d="M7.62938 29.8882C6.28141 29.8899 4.94414 29.6484 3.68187 29.1756L1.59082 28.3881C0.634294 28.0307 0 27.1167 0 26.0954C0 25.074 0.634294 24.1601 1.59082 23.8027L12.2521 19.8178L12.7774 21.2243L2.11605 25.2092C1.74081 25.3449 1.49055 25.7009 1.49055 26.1C1.49055 26.4992 1.74081 26.8552 2.11605 26.9909L4.21645 27.7692C6.42096 28.5897 8.84743 28.5897 11.0519 27.7692L12.2615 27.3189L12.7867 28.7254L11.5769 29.1756C10.3146 29.6487 8.97736 29.8901 7.62938 29.8882Z" fill="#158FD5"/>
<path d="M20.2493 31.9112L14.248 30.1578V3.08752L24.6094 6.11615C27.7968 7.06635 29.9867 9.99114 30.0007 13.3173V17.1337C30.0007 18.7908 28.6574 20.1341 27.0004 20.1341H24.75C23.0927 20.1341 21.7494 18.7908 21.7494 17.1337V11.8828C21.7494 11.4685 21.4137 11.1325 20.9992 11.1325C20.5849 11.1325 20.2493 11.4685 20.2493 11.8828V31.9112ZM15.7485 29.0326L18.7488 29.9139V11.8828C18.7488 10.64 19.7564 9.63237 20.9992 9.63237C22.2422 9.63237 23.2496 10.64 23.2496 11.8828V17.1337C23.2496 17.9623 23.9215 18.6339 24.75 18.6339H27.0004C27.8289 18.6339 28.5006 17.9623 28.5006 17.1337V13.3173C28.4907 10.6567 26.7378 8.31736 24.1874 7.56L15.7485 5.08463V29.0326Z" fill="#158FD5"/>
</g>
<defs>
<clipPath id="clip0_245_2343">
<rect width="36" height="36" fill="white"/>
</clipPath>
</defs>
</svg>
