<svg width="40" height="40" viewBox="0 0 40 40" fill="none" xmlns="http://www.w3.org/2000/svg">
<path fill-rule="evenodd" clip-rule="evenodd" d="M35.7156 26.8993C35.0903 27.7296 33.559 28.3216 33.559 28.3216L22.1664 32.6294V29.4527L30.5505 26.3079C31.5019 25.9489 31.648 25.4418 30.8747 25.1753C30.1028 24.9082 28.705 24.9848 27.7529 25.3453L22.1664 27.4165V24.1195L22.4885 24.0048C22.4885 24.0048 24.1027 23.4034 26.3727 23.1386C28.6426 22.8754 31.4219 23.1745 33.6039 24.0453C36.0629 24.8633 36.3399 26.069 35.7156 26.8993ZM23.251 21.4897V13.3653C23.251 12.4111 23.0837 11.5329 22.2333 11.2842C21.582 11.0645 21.1779 11.701 21.1779 12.6544V33L15.9658 31.2585V7C18.1819 7.43299 21.4106 8.45686 23.1462 9.07275C27.5603 10.6681 29.0569 12.6537 29.0569 17.1276C29.0569 21.4882 26.4999 23.1409 23.251 21.4897ZM6.40202 29.1206C3.87758 28.3722 3.45754 26.8129 4.60808 25.9146C5.67151 25.0852 7.48 24.4608 7.48 24.4608L14.9533 21.6634V24.8526L9.57535 26.8785C8.62537 27.2374 8.47927 27.7454 9.25131 28.0116C10.0238 28.2779 11.4223 28.2022 12.3737 27.8425L14.9533 26.8571V29.7103C14.7897 29.7409 14.6074 29.7715 14.4387 29.8013C11.8583 30.2452 9.11022 30.0601 6.40202 29.1206Z" fill="#2293D3"/>
</svg>
