<svg width="24" height="24" viewBox="0 0 24 24" fill="none" xmlns="http://www.w3.org/2000/svg">
<g clip-path="url(#clip0_1737_524)">
<path d="M11.5714 23.1429C17.9621 23.1429 23.1429 17.9621 23.1429 11.5714C23.1429 5.1807 17.9621 0 11.5714 0C5.1807 0 0 5.1807 0 11.5714C0 17.9621 5.1807 23.1429 11.5714 23.1429Z" fill="#727173"/>
<path d="M19.2863 11.5715C19.2863 10.6376 18.5284 9.87973 17.5945 9.87973C17.1344 9.87973 16.7284 10.0557 16.4306 10.3534C15.2803 9.52785 13.6833 8.98649 11.9239 8.91882L12.6953 5.30529L15.1991 5.83311C15.2261 6.4692 15.7539 6.98349 16.4036 6.98349C17.0667 6.98349 17.6081 6.44213 17.6081 5.77898C17.6081 5.11582 17.0667 4.57446 16.4036 4.57446C15.9299 4.57446 15.5239 4.84514 15.3344 5.25115L12.5329 4.65567C12.4517 4.64213 12.3705 4.65567 12.3028 4.69627C12.2351 4.73687 12.1945 4.80454 12.1675 4.88574L11.3148 8.91882C9.51484 8.97296 7.90431 9.50078 6.7404 10.3534C6.44266 10.0692 6.02311 9.87973 5.5765 9.87973C4.64266 9.87973 3.88477 10.6376 3.88477 11.5715C3.88477 12.2617 4.29078 12.8436 4.88627 13.1143C4.8592 13.2767 4.84567 13.4527 4.84567 13.6286C4.84567 16.2271 7.86371 18.3248 11.5991 18.3248C15.3344 18.3248 18.3524 16.2271 18.3524 13.6286C18.3524 13.4527 18.3389 13.2903 18.3118 13.1278C18.8667 12.8572 19.2863 12.2617 19.2863 11.5715ZM7.71484 12.776C7.71484 12.1128 8.2562 11.5715 8.91935 11.5715C9.58251 11.5715 10.1239 12.1128 10.1239 12.776C10.1239 13.4391 9.58251 13.9805 8.91935 13.9805C8.2562 13.9805 7.71484 13.4391 7.71484 12.776ZM14.4412 15.9564C13.6156 16.782 12.0457 16.8361 11.5855 16.8361C11.1254 16.8361 9.54191 16.7684 8.72988 15.9564C8.60807 15.8346 8.60807 15.6316 8.72988 15.5098C8.85168 15.388 9.05469 15.388 9.1765 15.5098C9.69078 16.0241 10.8006 16.2136 11.5991 16.2136C12.3975 16.2136 13.4938 16.0241 14.0216 15.5098C14.1434 15.388 14.3464 15.388 14.4682 15.5098C14.563 15.6451 14.563 15.8346 14.4412 15.9564ZM14.2246 13.9805C13.5615 13.9805 13.0201 13.4391 13.0201 12.776C13.0201 12.1128 13.5615 11.5715 14.2246 11.5715C14.8878 11.5715 15.4291 12.1128 15.4291 12.776C15.4291 13.4391 14.8878 13.9805 14.2246 13.9805Z" fill="#141315"/>
</g>
<defs>
<clipPath id="clip0_1737_524">
<rect width="24" height="24" fill="white"/>
</clipPath>
</defs>
</svg>
