<svg width="36" height="36" viewBox="0 0 36 36" fill="none" xmlns="http://www.w3.org/2000/svg">
<g clip-path="url(#clip0_245_2424)">
<path d="M35.8561 22.4923L32.7709 19.4072C32.6744 19.3108 32.56 19.2343 32.4339 19.182C32.3079 19.1298 32.1729 19.103 32.0365 19.103C31.9001 19.103 31.765 19.1298 31.639 19.182C31.513 19.2343 31.3985 19.3108 31.3021 19.4072L30.7909 19.9185L28.4689 17.5966L30.4735 15.592C31.3136 14.752 31.2858 13.3573 30.4117 12.4831C30.0702 12.1389 29.6281 11.9121 29.1493 11.8356C29.3211 11.5102 29.4056 11.1458 29.3945 10.778C29.3762 10.229 29.1626 9.70453 28.7921 9.29892C28.4217 8.89331 27.9187 8.63314 27.3736 8.56519C27.4885 8.28681 27.5434 7.98732 27.5348 7.68629C27.5167 7.14255 27.3071 6.62269 26.9429 6.21851C26.5788 5.81432 26.0835 5.55182 25.5446 5.47735C25.677 5.1824 25.7408 4.86128 25.7313 4.53811C25.7116 3.95315 25.4704 3.39752 25.0565 2.9837C24.6426 2.56988 24.0869 2.32878 23.5019 2.30921C23.2148 2.29952 22.9287 2.34891 22.6614 2.45431C22.3941 2.55972 22.1513 2.7189 21.948 2.92198L21.0365 3.83267L15.75 2.53062C15.2852 2.41632 14.7954 2.46253 14.3601 2.66176C13.9248 2.86099 13.5697 3.20153 13.3524 3.62806C12.9708 3.33735 12.5031 3.18227 12.0234 3.18738C11.5437 3.19249 11.0794 3.35751 10.7041 3.65629C10.3288 3.95506 10.0639 4.37053 9.95135 4.83686C9.83882 5.3032 9.8851 5.79375 10.0829 6.23082C9.75508 6.27444 9.44173 6.39286 9.16704 6.57694C8.89235 6.76102 8.66368 7.00582 8.49872 7.29239C8.33376 7.57897 8.23693 7.89965 8.21571 8.22964C8.1945 8.55962 8.24947 8.89006 8.37637 9.1954C8.02872 9.23629 7.69629 9.36134 7.40789 9.55972C7.11948 9.7581 6.88381 10.0238 6.72131 10.3339C6.5588 10.6439 6.47435 10.9889 6.47529 11.3389C6.47623 11.689 6.56253 12.0335 6.7267 12.3427C6.33413 12.4044 5.9663 12.5736 5.66392 12.8314C5.36154 13.0893 5.13641 13.4258 5.01345 13.8037C4.89048 14.1816 4.87448 14.5861 4.9672 14.9725C5.05993 15.359 5.25778 15.7122 5.53884 15.9931L7.03938 17.4938L4.912 19.6212L4.69797 19.4072C4.60155 19.3108 4.48707 19.2343 4.36107 19.1821C4.23507 19.1298 4.10002 19.103 3.96363 19.103C3.82724 19.103 3.69219 19.1298 3.56619 19.1821C3.44019 19.2343 3.32571 19.3108 3.22928 19.4072L0.143972 22.4923C0.0517949 22.5845 6.59063e-06 22.7095 6.29004e-10 22.8399C-6.58938e-06 22.9702 0.0517691 23.0952 0.143937 23.1874C0.236105 23.2796 0.361115 23.3314 0.491467 23.3314C0.621819 23.3314 0.746834 23.2796 0.839011 23.1874L3.92425 20.1023C3.92942 20.0972 3.93555 20.0931 3.9423 20.0903C3.94905 20.0875 3.95629 20.086 3.96359 20.086C3.9709 20.086 3.97814 20.0875 3.98489 20.0903C3.99164 20.0931 3.99777 20.0972 4.00293 20.1023L13.5896 29.6888C13.5947 29.6939 13.5988 29.7001 13.6016 29.7068C13.6044 29.7136 13.6059 29.7208 13.6059 29.7281C13.6059 29.7354 13.6044 29.7427 13.6016 29.7494C13.5988 29.7562 13.5947 29.7623 13.5896 29.7675L10.5047 32.8527C10.4138 32.9452 10.3631 33.0698 10.3637 33.1994C10.3642 33.329 10.4159 33.4532 10.5076 33.5449C10.5992 33.6365 10.7234 33.6883 10.853 33.6888C10.9827 33.6894 11.1073 33.6387 11.1997 33.5479L14.2849 30.4625C14.3814 30.3661 14.4579 30.2516 14.5101 30.1256C14.5623 29.9996 14.5892 29.8646 14.5892 29.7282C14.5892 29.5918 14.5623 29.4567 14.5101 29.3307C14.4579 29.2047 14.3814 29.0902 14.2849 28.9938L14.0799 28.7887L16.951 25.9172L17.0467 25.9794C18.0157 26.6035 19.1276 26.971 20.2777 27.0472C20.6018 27.0713 20.9061 27.2123 21.1339 27.4442L22.1995 28.5098L21.7154 28.9939C21.5209 29.1888 21.4117 29.4529 21.4117 29.7282C21.4117 30.0035 21.5209 30.2676 21.7154 30.4625L24.8007 33.5479C24.8462 33.5941 24.9004 33.6309 24.9602 33.6561C25.02 33.6813 25.0842 33.6944 25.1491 33.6947C25.214 33.695 25.2783 33.6824 25.3383 33.6577C25.3983 33.633 25.4528 33.5966 25.4987 33.5507C25.5445 33.5048 25.5809 33.4503 25.6056 33.3903C25.6303 33.3303 25.6428 33.266 25.6426 33.2011C25.6423 33.1362 25.6292 33.072 25.6039 33.0122C25.5787 32.9524 25.5419 32.8982 25.4956 32.8527L22.4105 29.7675C22.4 29.7571 22.3942 29.7429 22.3942 29.7282C22.3942 29.7134 22.4 29.6993 22.4105 29.6888L31.9972 20.1023C32.0024 20.0972 32.0085 20.0931 32.0153 20.0903C32.022 20.0875 32.0292 20.0861 32.0365 20.0861C32.0438 20.0861 32.0511 20.0875 32.0578 20.0903C32.0645 20.0931 32.0707 20.0972 32.0758 20.1023L35.1611 23.1876C35.2067 23.2332 35.2609 23.2694 35.3205 23.2941C35.3802 23.3188 35.4441 23.3315 35.5086 23.3315C35.5732 23.3315 35.6371 23.3188 35.6967 23.2941C35.7563 23.2694 35.8105 23.2332 35.8561 23.1876C35.9018 23.1419 35.938 23.0877 35.9627 23.0281C35.9874 22.9685 36.0001 22.9046 36.0001 22.84C36.0001 22.7755 35.9874 22.7116 35.9627 22.6519C35.938 22.5923 35.9018 22.5381 35.8561 22.4925V22.4923ZM14.5418 3.69408C14.6773 3.5872 14.8354 3.51279 15.0041 3.47654C15.1729 3.44029 15.3476 3.44318 15.5151 3.48497L20.2243 4.64513L17.5715 7.29788L14.981 6.00413C14.7174 5.87366 14.4958 5.67192 14.3411 5.42182C14.1865 5.17172 14.105 4.88328 14.1061 4.58923C14.1055 4.41666 14.1445 4.24625 14.22 4.09109C14.2956 3.93592 14.4056 3.80011 14.5418 3.69408ZM11.2181 4.5128C11.3268 4.40396 11.456 4.31762 11.5982 4.25871C11.7403 4.19981 11.8927 4.16949 12.0466 4.16949C12.2005 4.16949 12.3528 4.19981 12.495 4.25871C12.6372 4.31762 12.7663 4.40396 12.8751 4.5128L13.1294 4.76705C13.1587 5.21265 13.3047 5.64271 13.5526 6.01415C13.8005 6.38558 14.1416 6.68536 14.5419 6.88346L15.8708 7.54721L16.9661 8.604C17.1835 8.82452 17.3048 9.12215 17.3035 9.43184C17.3021 9.74152 17.1782 10.0381 16.9589 10.2567C16.7395 10.4753 16.4425 10.5982 16.1328 10.5985C15.8231 10.5988 15.5259 10.4764 15.3062 10.2582L11.2181 6.16986C11.1092 6.06105 11.0229 5.93189 10.964 5.78973C10.9052 5.64757 10.8749 5.4952 10.8749 5.34133C10.8749 5.18746 10.9052 5.03509 10.964 4.89293C11.0229 4.75077 11.1092 4.6216 11.2181 4.5128ZM9.53793 7.53694C9.75784 7.31757 10.0558 7.19437 10.3664 7.19437C10.677 7.19437 10.9749 7.31757 11.1948 7.53694L14.611 10.9531C14.7198 11.0619 14.8061 11.1911 14.865 11.3332C14.9238 11.4754 14.9541 11.6277 14.9541 11.7816C14.9541 11.9355 14.9238 12.0879 14.8649 12.23C14.806 12.3722 14.7197 12.5013 14.6109 12.6101C14.5021 12.7189 14.3729 12.8052 14.2308 12.8641C14.0886 12.923 13.9362 12.9533 13.7824 12.9533C13.6285 12.9533 13.4761 12.923 13.334 12.8641C13.1918 12.8052 13.0627 12.7189 12.9539 12.6101L9.53793 9.19393C9.31823 8.97418 9.1948 8.67617 9.1948 8.36543C9.1948 8.0547 9.31823 7.75668 9.53793 7.53694ZM7.80192 10.505C8.02181 10.2856 8.31978 10.1623 8.63044 10.1623C8.94111 10.1623 9.23908 10.2856 9.45897 10.505L12.2591 13.305C12.3679 13.4138 12.4543 13.543 12.5132 13.6852C12.5721 13.8273 12.6024 13.9797 12.6024 14.1336C12.6025 14.2875 12.5722 14.4399 12.5133 14.5821C12.4544 14.7243 12.3681 14.8535 12.2593 14.9623C12.1505 15.0711 12.0213 15.1575 11.8792 15.2164C11.737 15.2753 11.5846 15.3056 11.4307 15.3056C11.2768 15.3056 11.1244 15.2754 10.9823 15.2165C10.8401 15.1576 10.7109 15.0713 10.602 14.9625L7.80192 12.1621C7.58253 11.9422 7.45933 11.6442 7.45933 11.3336C7.45933 11.0229 7.58253 10.725 7.80192 10.505ZM5.89068 14.4697C5.89086 14.238 5.95969 14.0116 6.08847 13.819C6.21725 13.6265 6.4002 13.4764 6.61423 13.3877C6.82826 13.2991 7.06376 13.2758 7.29099 13.3209C7.51822 13.366 7.72699 13.4774 7.89093 13.6411L9.90707 15.6572C10.1248 15.8774 10.2465 16.1748 10.2456 16.4844C10.2448 16.794 10.1214 17.0907 9.90242 17.3097C9.68347 17.5286 9.38676 17.652 9.07713 17.6528C8.7675 17.6537 8.47011 17.532 8.24995 17.3142L6.23388 15.2982C6.12473 15.1896 6.03819 15.0605 5.97928 14.9183C5.92037 14.7761 5.89026 14.6236 5.89068 14.4697ZM5.60697 20.3162L7.74539 18.1779C8.07685 18.4392 8.47781 18.5974 8.89843 18.6327C9.31904 18.6681 9.74077 18.579 10.1112 18.3766C10.4816 18.1742 10.7843 17.8674 10.9818 17.4944C11.1793 17.1213 11.2628 16.6984 11.2219 16.2783C11.2907 16.2848 11.3602 16.2882 11.4304 16.2883C11.7133 16.2883 11.9935 16.2326 12.2549 16.1243C12.5163 16.016 12.7538 15.8573 12.9539 15.6572C13.154 15.4571 13.3127 15.2196 13.4209 14.9582C13.5292 14.6968 13.5849 14.4166 13.5849 14.1337C13.5849 14.064 13.5816 13.9948 13.575 13.9262C13.6435 13.9327 13.7127 13.9362 13.7824 13.9362C14.3539 13.9362 14.9019 13.7092 15.3059 13.3051C15.71 12.901 15.937 12.353 15.937 11.7816C15.937 11.7115 15.9337 11.6421 15.927 11.5732C15.996 11.5798 16.0651 11.5831 16.1345 11.5831C16.5185 11.5834 16.8955 11.481 17.2266 11.2865C17.5577 11.092 17.8307 10.8125 18.0174 10.477C18.2042 10.1415 18.2978 9.76221 18.2886 9.37836C18.2794 8.9945 18.1677 8.62009 17.9651 8.29393L22.6422 3.61674C22.7516 3.50833 22.8821 3.42353 23.0255 3.36759C23.169 3.31166 23.3224 3.28577 23.4763 3.29154C23.8095 3.30464 24.1254 3.44282 24.3612 3.67853C24.597 3.91424 24.7352 4.23016 24.7484 4.56329C24.7542 4.71716 24.7283 4.87059 24.6724 5.01406C24.6165 5.15753 24.5316 5.28798 24.4232 5.39733L23.7522 6.06832L23.7512 6.06931L21.1191 8.7016C21.0282 8.79402 20.9775 8.91861 20.978 9.04824C20.9786 9.17787 21.0303 9.30204 21.122 9.39371C21.2136 9.48539 21.3378 9.53714 21.4674 9.5377C21.597 9.53826 21.7216 9.48758 21.8141 9.39671L24.4462 6.76456C24.9033 6.30753 25.6742 6.33565 26.1652 6.8265C26.4031 7.06065 26.5417 7.37755 26.5519 7.71125C26.5577 7.86513 26.5318 8.01856 26.4758 8.16202C26.4199 8.30549 26.3351 8.43595 26.2267 8.54529L23.5945 11.1774C23.5036 11.2699 23.453 11.3945 23.4535 11.5241C23.4541 11.6537 23.5058 11.7779 23.5975 11.8696C23.6891 11.9612 23.8133 12.013 23.9429 12.0135C24.0725 12.0141 24.1971 11.9634 24.2896 11.8725L26.3059 9.85606C26.7629 9.39945 27.5337 9.42715 28.0246 9.91829C28.2625 10.1525 28.4011 10.4694 28.4113 10.8031C28.417 10.957 28.3912 11.1104 28.3352 11.2539C28.2793 11.3974 28.1944 11.5278 28.086 11.6372L27.3025 12.4208L27.302 12.4212L26.07 13.6532C25.9791 13.7456 25.9284 13.8702 25.9289 13.9999C25.9295 14.1295 25.9812 14.2537 26.0729 14.3453C26.1645 14.437 26.2887 14.4887 26.4183 14.4893C26.548 14.4898 26.6726 14.4391 26.765 14.3483L27.9985 13.1157C28.1078 13.0074 28.2381 12.9227 28.3815 12.8668C28.5249 12.8109 28.6783 12.7851 28.832 12.7909C29.1658 12.8013 29.4828 12.9399 29.7169 13.178C30.2078 13.669 30.2356 14.4402 29.7788 14.897L28.6982 15.9775H28.6979L23.707 20.9683C22.3365 22.3434 20.5725 23.2587 18.6591 23.5875C18.0541 23.6914 17.4964 23.9806 17.063 24.4153L13.3849 28.0934L5.60697 20.3162ZM21.8289 26.7491C21.4325 26.3487 20.9041 26.106 20.3421 26.0664C19.3919 26.0033 18.4717 25.7076 17.6625 25.2054L17.7574 25.1106C18.0477 24.8195 18.4213 24.6258 18.8266 24.5562C20.9397 24.1931 22.8878 23.1823 24.4014 21.6638L27.7736 18.2916L30.0956 20.6134L22.8946 27.8146L21.8289 26.7491Z" fill="#158FD5"/>
</g>
<defs>
<clipPath id="clip0_245_2424">
<rect width="36" height="36" fill="white"/>
</clipPath>
</defs>
</svg>
