<svg width="36" height="36" viewBox="0 0 36 36" fill="none" xmlns="http://www.w3.org/2000/svg">
<g clip-path="url(#clip0_245_2381)">
<path d="M22.7812 11.3906C22.7812 7.12601 19.3115 3.65625 15.0469 3.65625C10.7823 3.65625 7.3125 7.12601 7.3125 11.3906C7.3125 15.6552 10.7823 19.125 15.0469 19.125C19.3115 19.125 22.7812 15.6552 22.7812 11.3906ZM8.71875 11.3906C8.71875 7.90137 11.5576 5.0625 15.0469 5.0625C18.5361 5.0625 21.375 7.90137 21.375 11.3906C21.375 14.8799 18.5361 17.7188 15.0469 17.7188C11.5576 17.7188 8.71875 14.8799 8.71875 11.3906Z" fill="#158FD5"/>
<path d="M18.9452 11.3906C18.9452 10.8155 18.648 10.3002 18.1498 10.0127L14.5388 7.92801C14.0409 7.64017 13.446 7.64017 12.9478 7.92801C12.4495 8.21558 12.1523 8.73056 12.1523 9.30597V13.4756C12.1523 14.0507 12.4495 14.5657 12.9478 14.8535C13.1969 14.9972 13.4702 15.0691 13.7434 15.0691C14.0164 15.0691 14.2897 14.9972 14.5388 14.8532L18.1498 12.7686C18.648 12.481 18.9452 11.9658 18.9452 11.3906ZM17.4467 11.5508L13.8357 13.6354C13.7594 13.6796 13.6932 13.6599 13.6509 13.6354C13.6089 13.611 13.5586 13.5637 13.5586 13.4753V9.30597C13.5586 9.21753 13.6089 9.17001 13.6509 9.14584C13.6748 9.13211 13.7066 9.11975 13.7434 9.11975C13.7715 9.11975 13.8028 9.12689 13.8357 9.14584L17.4467 11.2305C17.523 11.2747 17.5389 11.342 17.5389 11.3906C17.5389 11.4392 17.523 11.5065 17.4467 11.5508Z" fill="#158FD5"/>
<path d="M23.8848 24.6874C23.8848 24.5025 23.8098 24.321 23.6788 24.1902C23.548 24.0595 23.3668 23.9843 23.1816 23.9843C22.9968 23.9843 22.8155 24.0595 22.6848 24.1902C22.554 24.321 22.4785 24.5025 22.4785 24.6874C22.4785 24.873 22.5538 25.0538 22.6848 25.1845C22.8155 25.3161 22.9968 25.3905 23.1816 25.3905C23.3668 25.3905 23.548 25.3161 23.6788 25.1845C23.8098 25.0538 23.8848 24.873 23.8848 24.6874Z" fill="#158FD5"/>
<path d="M34.5938 27.4941V24.6877C34.5938 24.4245 34.4468 24.1834 34.2131 24.0628L29.7804 21.7757C29.982 21.4478 30.0938 21.0666 30.0938 20.6719V2.10938C30.0938 0.946197 29.1476 0 27.9844 0H2.10938C0.946197 0 0 0.946197 0 2.10938V20.6719C0 21.8351 0.946197 22.7812 2.10938 22.7812H14.6332L12.1498 24.0628C11.9158 24.1834 11.7688 24.4245 11.7688 24.6877C11.7688 24.9508 11.9158 25.1919 12.1498 25.3125L16.0403 27.3197V31.9787C16.0403 32.2419 16.1873 32.483 16.4213 32.6036L22.8593 35.922C22.9603 35.9739 23.0707 36 23.1814 36C23.2918 36 23.4025 35.9739 23.5036 35.922L29.9416 32.6036C30.1753 32.483 30.3225 32.2419 30.3225 31.9787V27.3197L33.1875 25.8415V27.4941C32.369 27.7844 31.7812 28.5658 31.7812 29.4826V33.6099C31.7812 33.998 32.096 34.3131 32.4844 34.3131H35.2969C35.6852 34.3131 36 33.998 36 33.6099V29.4826C36 28.5658 35.4122 27.7844 34.5938 27.4941ZM1.40625 20.6719V2.10938C1.40625 1.72156 1.72156 1.40625 2.10938 1.40625H27.9844C28.3722 1.40625 28.6875 1.72156 28.6875 2.10938V20.6719C28.6875 20.8397 28.6268 21.0001 28.5205 21.1259L23.5036 18.5375C23.3015 18.4331 23.0611 18.4331 22.859 18.5375L17.3589 21.375H2.10938C1.72156 21.375 1.40625 21.0597 1.40625 20.6719ZM23.1814 19.9534L30.9944 23.9845H26.3455C25.9571 23.9845 25.6424 24.2993 25.6424 24.6877C25.6424 25.0757 25.9571 25.3908 26.3455 25.3908H30.9944L23.1814 29.4217L14.0054 24.6877L23.1814 19.9534ZM28.9163 31.55L23.1814 34.5059L17.4466 31.55V28.0453L22.859 30.8378C22.9601 30.89 23.0707 30.9161 23.1814 30.9161C23.2918 30.9161 23.4025 30.89 23.5036 30.8378L28.9163 28.0453V31.55ZM34.5938 32.9068H33.1875V29.4826C33.1875 29.0948 33.5028 28.7795 33.8906 28.7795C34.2784 28.7795 34.5938 29.0948 34.5938 29.4826V32.9068Z" fill="#158FD5"/>
</g>
<defs>
<clipPath id="clip0_245_2381">
<rect width="36" height="36" fill="white"/>
</clipPath>
</defs>
</svg>
