<svg width="34" height="40" viewBox="0 0 34 40" fill="none" xmlns="http://www.w3.org/2000/svg">
<path d="M15.7036 32.9466C13.7007 32.7548 11.673 32.036 9.93124 30.9001C8.47167 29.9487 8.14229 29.557 8.14229 28.7763C8.14229 27.2079 9.86778 24.4604 12.8201 21.3291C14.4964 19.5502 16.8317 17.4663 17.084 17.5225C17.5754 17.6321 21.5008 21.459 22.9706 23.2608C25.2944 26.1089 26.3624 28.4417 25.8196 29.4815C25.4072 30.2719 22.847 31.817 20.9665 32.4105C19.4163 32.8998 17.3805 33.107 15.7036 32.9466ZM6.17082 27.1457C4.95784 25.2859 4.345 23.455 4.04947 20.8069C3.95156 19.9326 3.98601 19.4327 4.27097 17.6375C4.62543 15.4026 5.89976 12.8143 7.43185 11.2226C8.08397 10.5461 8.14199 10.528 8.93735 10.7968C9.90132 11.123 10.9318 11.8345 12.5304 13.2794L13.4641 14.1232L12.9534 14.7484C10.5879 17.6508 8.09122 21.7673 7.15142 24.3134C6.64072 25.6966 6.43523 27.0859 6.65583 27.6643C6.8039 28.0551 6.66792 27.9095 6.16931 27.1466L6.17082 27.1457ZM27.4608 27.4619C27.5808 26.8772 27.4291 25.8038 27.074 24.7208C26.305 22.3756 23.7336 18.0129 21.3727 15.0465L20.6293 14.1127L21.4337 13.3748C22.4835 12.4114 23.2124 11.8345 23.9993 11.3443C24.6197 10.9578 25.5066 10.6156 25.8879 10.6156C26.1227 10.6156 26.9504 11.4763 27.6183 12.4126C28.653 13.8623 29.4139 15.6231 29.7994 17.4533C30.0488 18.6372 30.0696 21.1681 29.8396 22.349C29.6493 23.3179 29.2504 24.5737 28.8636 25.4257C28.5705 26.0639 27.8482 27.3037 27.5309 27.7072C27.3677 27.9146 27.3677 27.9143 27.4584 27.4667L27.4608 27.4619ZM15.9182 10.1728C14.8285 9.62011 13.1477 9.02664 12.2194 8.86657C11.8942 8.8107 11.3391 8.77899 10.9865 8.79711C10.2201 8.83577 10.2543 8.7959 11.483 8.21572C12.5044 7.7334 13.3565 7.4498 14.5139 7.20698C15.8148 6.93365 18.261 6.93063 19.5414 7.20033C20.9239 7.49178 22.5524 8.09733 23.4698 8.66211L23.743 8.82942L23.1175 8.79801C21.8737 8.73519 20.0612 9.23745 18.1151 10.1834C17.5282 10.4691 17.0181 10.6968 16.9807 10.6908C16.9435 10.6835 16.4651 10.4507 15.917 10.1728H15.9182Z" fill="#2293D3"/>
</svg>
