<svg width="32" height="32" viewBox="0 0 32 32" fill="none" xmlns="http://www.w3.org/2000/svg">
<g clip-path="url(#clip0_245_2354)">
<path d="M23.1617 1.68918C20.9277 0.56856 18.518 0.00012207 15.9995 0.00012207C13.516 0.00012207 11.1356 0.55356 8.92496 1.64537C8.69583 1.75856 8.55608 1.99681 8.56921 2.25193C8.58202 2.50706 8.74559 2.73031 8.98496 2.81975C11.4166 3.72587 13.6823 4.94337 15.7186 6.43793C15.8315 6.52112 15.9644 6.56237 16.0976 6.56237C16.2308 6.56237 16.3636 6.52112 16.4765 6.43793C18.4829 4.96525 20.7116 3.7615 23.1007 2.86037C23.3386 2.77093 23.5009 2.54831 23.5141 2.29443C23.5275 2.04062 23.389 1.803 23.1617 1.68918ZM16.0976 5.13231C14.4776 3.98418 12.7258 3.00118 10.8698 2.19762C14.1715 0.96631 17.9439 0.980685 21.2344 2.23762C19.4128 3.03306 17.6913 4.00293 16.0976 5.13231Z" fill="#158FD5"/>
<path d="M26.0381 3.54019C25.8283 3.37076 25.5347 3.35132 25.3039 3.49144C23.7481 4.43507 21.3418 5.97901 18.7151 7.97513C18.5672 8.08707 18.4756 8.25776 18.4634 8.44351C18.4515 8.62863 18.5203 8.80994 18.6523 8.94001C19.5799 9.85738 20.4514 10.8566 21.2424 11.9104C24.8918 16.7768 26.3232 20.5863 26.8347 23.2033C24.9878 18.9892 21.5287 14.7006 16.5139 10.4158C16.2744 10.2107 15.9217 10.2107 15.6822 10.4158C10.6601 14.7069 7.1995 18.9998 5.35444 23.2177C5.86469 20.5788 7.3045 16.7768 10.954 11.9104C11.7448 10.8567 12.6162 9.85676 13.5438 8.94001C13.6761 8.80994 13.7449 8.62857 13.7329 8.44351C13.7207 8.25776 13.6291 8.08707 13.4812 7.97513C10.8076 5.94407 8.36131 4.37882 6.77956 3.42332C6.55037 3.28451 6.25956 3.30388 6.05013 3.46957C2.20525 6.52619 0 11.0936 0 16C0 19.9003 1.4195 23.6579 3.99681 26.5794C4.06956 26.662 4.16031 26.7226 4.25944 26.7583C4.28662 26.8609 4.33919 26.9566 4.4145 27.0353C7.46519 30.2371 11.5796 31.9999 15.9998 31.9999C20.4447 31.9999 24.7264 30.1276 27.7467 26.8634C27.8331 26.7702 27.8884 26.6551 27.9084 26.5332C28.0259 26.4988 28.1335 26.4306 28.2164 26.3331C30.6562 23.4509 32 19.7814 32 16C32 11.1374 29.8269 6.59619 26.0381 3.54019ZM3.89269 24.3726C2.19869 21.9244 1.28069 19.0085 1.28069 16C1.28069 11.6346 3.17825 7.56113 6.50319 4.75394C7.93019 5.62882 9.93069 6.92513 12.124 8.55663C11.3448 9.36957 10.6088 10.2363 9.92969 11.1424C5.48325 17.0706 4.17881 21.5643 3.89269 24.3726ZM15.9999 30.7192C12.0509 30.7192 8.367 29.1896 5.58706 26.4038C6.84931 21.6462 10.3827 16.7192 16.0981 11.7478C21.7489 16.6629 25.268 21.5374 26.5665 26.2474C23.8034 29.0933 19.9726 30.7192 15.9999 30.7192ZM22.2666 11.1418C21.5872 10.2363 20.8512 9.36957 20.072 8.55663C22.219 6.96013 24.1783 5.68632 25.579 4.82401C28.8517 7.62863 30.7192 11.6764 30.7192 16C30.7192 18.9003 29.8604 21.7287 28.2742 24.1256C27.9391 21.3466 26.6021 16.923 22.2666 11.1418Z" fill="#158FD5"/>
</g>
<defs>
<clipPath id="clip0_245_2354">
<rect width="32" height="32" fill="white"/>
</clipPath>
</defs>
</svg>
