<svg width="24" height="24" viewBox="0 0 24 24" fill="none" xmlns="http://www.w3.org/2000/svg">
<path d="M23.4986 5.97161C23.2225 4.97064 22.4093 4.18233 21.3766 3.91479C19.5051 3.42859 12 3.42859 12 3.42859C12 3.42859 4.495 3.42859 2.6234 3.91479C1.59065 4.18233 0.777275 4.97064 0.501445 5.97161C0 7.78592 0 11.5714 0 11.5714C0 11.5714 0 15.3568 0.501445 17.1713C0.777275 18.1724 1.59065 18.9605 2.6233 19.2283C4.4949 19.7143 11.9999 19.7143 11.9999 19.7143C11.9999 19.7143 19.505 19.7143 21.3765 19.2283C22.4092 18.9606 23.2224 18.1724 23.4985 17.1714C24 15.3569 24 11.5715 24 11.5715C24 11.5715 24 7.78602 23.4985 5.97171" fill="#727173"/>
<path d="M9.42773 14.5714L15.4277 11.5716L9.42773 8.57141V14.5714Z" fill="#141315"/>
</svg>
